# AST/ASF file generated using VICON BodyLanguage
# -----------------------------------------------
:version 1.10
:name VICON
:units
  mass 1.0
  length 0.45
  angle deg
:documentation
   .ast/.asf automatically generated from VICON data using
   VICON BodyBuilder and BodyLanguage model FoxedUp or BRILLIANT.MOD
:root
   order TX TY TZ RX RY RZ
   axis XYZ
   position 0 0 0  
   orientation 0 0 0 
:bonedata
  begin
     id 1 
     name lhipjoint
     direction 0.578396 -0.714046 0.394458 
     length 2.21935 
     axis 0 0 0  XYZ
  end
  begin
     id 2 
     name lfemur
     direction 0.34202 -0.939693 0  
     length 6.39105  
     axis 0 0 20  XYZ
    dof rx ry rz
    limits (-160.0 20.0)
           (-70.0 70.0)
           (-60.0 70.0)
  end
  begin
     id 3 
     name ltibia
     direction 0.34202 -0.939693 0   
     length 6.99037   
     axis 0 0 20   XYZ
    dof rx
    limits (-10.0 170.0)
  end
  begin
     id 4 
     name lfoot
     direction 0.0582372 -0.160005 0.985397   
     length 2.06111   
     axis -90 7.62852e-016 20   XYZ
    dof rx rz
    limits (-45.0 90.0)
           (-70.0 20.0)
  end
  begin
     id 5 
     name ltoes
     direction 1.53556e-011 -4.21875e-011 1   
     length 1.04074   
     axis -90 7.62852e-016 20   XYZ
    dof rx
    limits (-90.0 20.0)
  end
  begin
     id 6 
     name rhipjoint
     direction -0.558179 -0.726269 0.40121   
     length 2.182  
     axis 0 0 0  XYZ 
  end
  begin
     id 7 
     name rfemur
     direction -0.34202 -0.939693 0   
     length 6.51172   
     axis 0 0 -20   XYZ
    dof rx ry rz
    limits (-160.0 20.0)
           (-70.0 70.0)
           (-70.0 60.0)
  end
  begin
     id 8 
     name rtibia
     direction -0.34202 -0.939693 0   
     length 7.02607   
     axis 0 0 -20   XYZ
    dof rx
    limits (-10.0 170.0)
 end
 begin
     id 9 
     name rfoot
     direction -0.0788856 -0.216737 0.973038   
     length 1.96734  
     axis -90 -7.62852e-016 -20   XYZ
    dof rx rz
    limits (-45.0 90.0)
           (-20.0 70.0)
  end
  begin
     id 10 
     name rtoes
     direction -1.53567e-011 -4.21783e-011 1   
     length 0.990825   
     axis -90 -7.62852e-016 -20   XYZ
    dof rx
    limits (-90.0 20.0)
  end
  begin
     id 11 
     name lowerback
     direction 0.00668177 0.999323 -0.0361741   
     length 1.7655   
     axis 0 0 0   XYZ
    dof rx ry rz
    limits (-20.0 45.0)
           (-30.0 30.0)
           (-30.0 30.0)
  end
  begin
     id 12 
     name upperback
     direction -0.00222086 0.99851 0.0545167   
     length 1.74912   
     axis 0 0 0   XYZ
    dof rx ry rz
    limits (-20.0 45.0)
           (-30.0 30.0)
           (-30.0 30.0)
  end
  begin
     id 13 
     name thorax
     direction -0.00733971 0.997496 0.0703443   
     length 1.75715   
     axis 0 0 0   XYZ
    dof rx ry rz
    limits (-20.0 45.0)
           (-30.0 30.0)
           (-30.0 30.0)
  end
  begin
     id 14 
     name lowerneck
     direction 0.0279797 0.994795 0.0979765   
     length 1.46939   
     axis 0 0 0   XYZ
    dof rx ry rz
    limits (-20.0 45.0)
           (-30.0 30.0)
           (-30.0 30.0)
  end
  begin
     id 15 
     name upperneck
     direction 0.00339187 0.976776 -0.214238   
     length 1.48018   
     axis 0 0 0   XYZ
    dof rx ry rz
    limits (-20.0 45.0)
           (-30.0 30.0)
           (-30.0 30.0)
  end
  begin
     id 16
     name head
     direction -0.00263506 0.996603 -0.0823096  
     length 1.4976  
     axis 0 0 0   XYZ
    dof rx ry rz
    limits (-20.0 45.0)
           (-30.0 30.0)
           (-30.0 30.0)
  end
  begin
     id 17 
     name lclavicle
     direction 0.894044 0.44508 -0.0508781  
     length 3.03024  
     axis 0 0 0   XYZ
    dof ry rz
    limits (-20.0 10.0)
           (0.0 20.0)
  end
  begin
     id 18 
     name lhumerus
     direction 1 -4.48961e-011 -2.39475e-018   
     length 4.4661   
     axis 180 -30 -90   XYZ
    dof rx ry rz
    limits (-60.0 90.0)
           (-90.0 90.0)
           (-90.0 90.0)
  end
  begin
     id 19
     name lradius
     direction 1 -4.48961e-011 9.29328e-028   
     length 3.41414   
     axis 180 -30 -90   XYZ
    dof rx
    limits (-10.0 170.0)
  end
  begin
     id 20
     name lwrist
     direction 1 -4.48985e-011 1.53461e-026   
     length 1.70707   
     axis -1.09697e-014 90 90   XYZ
    dof ry
    limits (-180.0 0.0)
 end
  begin
     id 21 
     name lhand
     direction 1 -4.48966e-011 3.06923e-026   
     length 0.328298   
     axis -1.95843e-014 90 90   XYZ
    dof rx rz
    limits (-90.0 90.0)
           (-45.0 45.0)
  end
  begin
     id 22 
     name lfingers
     direction 1 -4.48893e-011 6.13845e-026   
     length 0.264682   
     axis -3.91686e-014 90 90   XYZ
    dof rx
    limits (0.0 90.0)
  end
  begin
     id 23
     name lthumb
     direction 0.707107 -6.34876e-011 0.707107   
     length 0.380032   
     axis -90 45 2.85299e-015   XYZ
    dof rx rz
    limits (-45.0 45.0)
           (-45.0 45.0)
  end
  begin
     id 24 
     name rclavicle
     direction -0.936955 0.347862 -0.0332887   
     length 3.26927  
     axis 0 0 0   XYZ 
    dof ry rz
    limits (-10.0 20.0)
           (-20.0 0.0)
  end
  begin
     id 25 
     name rhumerus
     direction -1 -4.4896e-011 1.78637e-018  
     length 4.40431   
     axis 180 30 90   XYZ
    dof rx ry rz
    limits (-90.0 60.0)
           (-90.0 90.0)
           (-90.0 90.0)
  end
  begin
     id 26 
     name rradius
     direction -1 -4.48955e-011 9.34036e-027   
     length 3.04688   
     axis 180 30 90   XYZ
    dof rx
    limits (-10.0 170.0)
  end
  begin
     id 27 
     name rwrist
     direction -1 -4.49011e-011 1.53461e-026   
     length 1.52344   
     axis -1.09697e-014 -90 -90   XYZ
    dof ry
    limits (-180.0 0.0)
  end
  begin
     id 28
     name rhand
     direction -1 -4.48834e-011 3.06923e-026   
     length 0.500489   
     axis -1.95843e-014 -90 -90   XYZ
    dof rx rz
    limits (-90.0 90.0)
           (-45.0 45.0)
  end
  begin
     id 29
     name rfingers
     direction -1 -4.48967e-011 6.13845e-026   
     length 0.403507   
     axis -3.91686e-014 -90 -90   XYZ
    dof rx
    limits (0.0 90.0)
  end
  begin
     id 30
     name rthumb
     direction -0.707107 -6.34826e-011 0.707107   
     length 0.579358   
     axis -90 -45 -2.85299e-015   XYZ
    dof rx rz
    limits (-45.0 45.0)
           (-45.0 45.0)
  end
:hierarchy
  begin
    root lhipjoint rhipjoint lowerback
    lhipjoint lfemur
    lfemur ltibia
    ltibia lfoot
    lfoot ltoes
    rhipjoint rfemur
    rfemur rtibia
    rtibia rfoot
    rfoot rtoes
    lowerback upperback
    upperback thorax
    thorax lowerneck lclavicle rclavicle
    lowerneck upperneck
    upperneck head
    lclavicle lhumerus
    lhumerus lradius
    lradius lwrist
    lwrist lhand lthumb
    lhand lfingers
    rclavicle rhumerus
    rhumerus rradius
    rradius rwrist
    rwrist rhand rthumb
    rhand rfingers
  end

#!OML:ASF H:\IndianDance\Patient Classification 1\Patient 1\Session 1\dancer.ASF
:FULLY-SPECIFIED
:DEGREES
629
root -3.63006 14.2848 6.09351 -170.571 -18.2304 -181.882
lowerback 0.708591 14.1379 1.30292
upperback -8.40029 18.151 -7.429
thorax -6.43409 8.53124 -9.23633
lowerneck -18.4875 8.35009 4.63594
upperneck 24.4431 6.57042 11.5323
head 10.7676 4.66024 4.33163
rclavicle -8.74653e-014 1.27222e-014
rhumerus 41.0193 59.0417 -66.0819
rradius 82.9008
rwrist -67.3529
rhand -29.2888 1.60348
rfingers 7.12502
rthumb -2.63067 -28.36
lclavicle -8.74653e-014 1.27222e-014
lhumerus 28.1917 -37.2972 32.1499
lradius 39.0906
lwrist -0.502046
lhand 18.2988 -331.064
lfingers 7.12502
lthumb 42.9471 -306.8
rfemur -26.1256 -41.31 32.3663
rtibia 89.3966
rfoot -8.06096 2.62967
rtoes 14.7998
lfemur -35.1287 9.40149 -26.3381
ltibia 57.9919
lfoot -27.0375 2.27928
ltoes 9.59514
630
root -3.60128 14.2776 6.06317 -170.304 -18.8257 -182.1
lowerback 0.616951 14.2929 1.18178
upperback -8.45686 18.3244 -7.69818
thorax -6.36708 8.61701 -9.42969
lowerneck -18.6097 8.20902 4.5193
upperneck 24.2586 6.39486 11.6392
head 10.7219 4.58424 4.36018
rclavicle 3.26007e-014 1.27222e-014
rhumerus 42.9968 58.7811 -65.9961
rradius 79.8596
rwrist -67.331
rhand -29.4748 1.42424
rfingers 7.12502
rthumb -2.81024 -28.537
lclavicle 3.26007e-014 1.27222e-014
lhumerus 28.9978 -36.5454 32.4504
lradius 37.9469
lwrist -0.838566
lhand 19.2609 -330.748
lfingers 7.12502
lthumb 43.846 -306.808
rfemur -25.7825 -41.3734 33.8571
rtibia 88.0556
rfoot -7.52 2.37818
rtoes 15.9333
lfemur -35.3182 9.38646 -26.3975
ltibia 58.0316
lfoot -27.0479 1.7317
ltoes 9.53162
631
root -3.57415 14.2712 6.03258 -170.045 -19.4129 -182.315
lowerback 0.532641 14.4254 1.08157
upperback -8.51653 18.4686 -7.96246
thorax -6.3063 8.68658 -9.63064
lowerneck -18.7294 8.06687 4.41919
upperneck 24.1047 6.20967 11.7409
head 10.6893 4.50448 4.38481
rclavicle -6.34123e-014 -6.36111e-014
rhumerus 44.873 58.5363 -65.9407
rradius 76.8019
rwrist -67.2043
rhand -29.7223 1.18121
rfingers 7.12502
rthumb -3.04927 -28.7767
lclavicle -6.34123e-014 -6.36111e-014
lhumerus 29.7425 -35.8768 32.6954
lradius 36.9391
lwrist -1.17191
lhand 20.0787 -330.474
lfingers 7.12502
lthumb 44.6084 -306.822
rfemur -25.4482 -41.3941 35.3137
rtibia 86.5253
rfoot -6.87714 1.91095
rtoes 17.2278
lfemur -35.487 9.31989 -26.451
ltibia 58.0617
lfoot -27.0544 1.22584
ltoes 9.512
632
root -3.54838 14.2655 6.002 -169.794 -20.0077 -182.501
lowerback 0.447954 14.5312 1.01753
upperback -8.58414 18.5795 -8.21511
thorax -6.251 8.73729 -9.83826
lowerneck -18.8478 7.92038 4.33256
upperneck 23.9866 6.0093 11.841
head 10.6718 4.41871 4.40681
rclavicle -2.84262e-014 1.35174e-013
rhumerus 46.6307 58.3083 -65.9177
rradius 73.7779
rwrist -67.0663
rhand -30.0091 0.876674
rfingers 7.12502
rthumb -3.32624 -29.0771
lclavicle -2.84262e-014 1.35174e-013
lhumerus 30.4323 -35.2877 32.8833
lradius 36.0425
lwrist -1.48576
lhand 20.8022 -330.282
lfingers 7.12502
lthumb 45.2817 -306.894
rfemur -25.1374 -41.3675 36.766
rtibia 84.8163
rfoot -6.16287 1.21204
rtoes 18.6742
lfemur -35.6544 9.20632 -26.473
ltibia 58.0871
lfoot -27.0488 0.750524
ltoes 9.53103
633
root -3.5243 14.2608 5.9715 -169.551 -20.5881 -182.673
lowerback 0.359326 14.6195 0.978131
upperback -8.65701 18.6685 -8.45918
thorax -6.19721 8.77566 -10.0488
lowerneck -18.9681 7.76602 4.26056
upperneck 23.908 5.78629 11.9431
head 10.6718 4.32416 4.42666
rclavicle -4.95968e-014 6.36111e-015
rhumerus 48.2198 58.0905 -65.9594
rradius 70.8468
rwrist -67.0302
rhand -30.2961 0.508468
rfingers 7.12502
rthumb -3.60341 -29.4408
lclavicle -4.95968e-014 6.36111e-015
lhumerus 31.0665 -34.7586 33.0412
lradius 35.224
lwrist -1.78606
lhand 21.4072 -330.188
lfingers 7.12502
lthumb 45.8436 -307.029
rfemur -24.8334 -41.2771 38.1709
rtibia 82.9452
rfoot -5.43093 0.282834
rtoes 20.1119
lfemur -35.8134 9.06856 -26.4817
ltibia 58.1058
lfoot -27.0309 0.310424
ltoes 9.56334
634
root -3.50188 14.2571 5.94091 -169.318 -21.1562 -182.83
lowerback 0.257938 14.6903 0.957656
upperback -8.73262 18.7358 -8.69191
thorax -6.14014 8.80248 -10.2539
lowerneck -19.0848 7.60132 4.19774
upperneck 23.8634 5.53807 12.053
head 10.686 4.21968 4.44624
rclavicle 5.27773e-014 -1.03368e-013
rhumerus 49.5906 57.876 -66.1048
rradius 68.0752
rwrist -67.2013
rhand -30.5232 0.0689078
rfingers 7.12502
rthumb -3.82272 -29.8766
lclavicle 5.27773e-014 -1.03368e-013
lhumerus 31.6596 -34.2961 33.1492
lradius 34.4755
lwrist -2.02471
lhand 21.9349 -330.154
lfingers 7.12502
lthumb 46.3332 -307.199
rfemur -24.5255 -41.1238 39.5071
rtibia 80.9295
rfoot -4.74101 -0.862697
rtoes 21.4236
lfemur -35.9626 8.91538 -26.4779
ltibia 58.1189
lfoot -27.0005 -0.110468
ltoes 9.64266
635
root -3.48135 14.2545 5.91039 -169.096 -21.6991 -182.976
lowerback 0.141495 14.7488 0.952137
upperback -8.81008 18.7878 -8.914
thorax -6.07773 8.82131 -10.4516
lowerneck -19.1947 7.42353 4.12961
upperneck 23.8419 5.26242 12.1862
head 10.7088 4.10456 4.47225
rclavicle 2.00474e-013 5.725e-014
rhumerus 50.6811 57.6586 -66.4083
rradius 65.5314
rwrist -67.6626
rhand -30.7192 -0.351752
rfingers 7.12502
rthumb -4.012 -30.2937
lclavicle 2.00474e-013 5.725e-014
lhumerus 32.2229 -33.8981 33.1989
lradius 33.7821
lwrist -2.18166
lhand 22.4119 -330.156
lfingers 7.12502
lthumb 46.7749 -307.391
rfemur -24.2047 -40.9009 40.7491
rtibia 78.7922
rfoot -4.13094 -2.19205
rtoes 22.4778
lfemur -36.0994 8.76685 -26.4684
ltibia 58.124
lfoot -26.9561 -0.518436
ltoes 9.77152
636
root -3.46244 14.2532 5.88013 -168.882 -22.2117 -183.113
lowerback 0.0140611 14.7961 0.948334
upperback -8.8936 18.825 -9.12388
thorax -6.02162 8.83199 -10.6368
lowerneck -19.2898 7.22906 4.04571
upperneck 23.8384 4.95659 12.3504
head 10.7365 3.9772 4.50801
rclavicle -7.83212e-014 4.92986e-014
rhumerus 51.4327 57.4325 -66.9166
rradius 63.2777
rwrist -68.4597
rhand -30.8645 -0.741623
rfingers 7.12502
rthumb -4.15225 -30.6809
lclavicle -7.83212e-014 4.92986e-014
lhumerus 32.7167 -33.5104 33.2706
lradius 33.1157
lwrist -2.32622
lhand 22.8828 -330.177
lfingers 7.12502
lthumb 47.2105 -307.604
rfemur -23.8715 -40.6029 41.8817
rtibia 76.5581
rfoot -3.60946 -3.6624
rtoes 23.3397
lfemur -36.2262 8.63221 -26.4577
ltibia 58.12
lfoot -26.8971 -0.916942
ltoes 9.94922
637
root -3.44511 14.253 5.85033 -168.676 -22.6853 -183.248
lowerback -0.127297 14.8318 0.941003
upperback -8.97715 18.8465 -9.32274
thorax -5.96519 8.83494 -10.8063
lowerneck -19.3816 7.01967 3.94394
upperneck 23.8454 4.62283 12.5486
head 10.7687 3.83901 4.55553
rclavicle 4.06515e-014 -1.59028e-014
rhumerus 51.8543 57.1933 -67.6174
rradius 61.3682
rwrist -69.6065
rhand -30.979 -1.05042
rfingers 7.12502
rthumb -4.26289 -30.9875
lclavicle 4.06515e-014 -1.59028e-014
lhumerus 33.1126 -33.0725 33.4219
lradius 32.4543
lwrist -2.52881
lhand 23.3855 -330.206
lfingers 7.12502
lthumb 47.6749 -307.843
rfemur -23.5228 -40.2264 42.8816
rtibia 74.2562
rfoot -3.15574 -5.21469
rtoes 24.0405
lfemur -36.339 8.52176 -26.4544
ltibia 58.1058
lfoot -26.8268 -1.29734
ltoes 10.1423
638
root -3.42923 14.2539 5.82122 -168.478 -23.1134 -183.378
lowerback -0.276253 14.8571 0.928219
upperback -9.06211 18.8542 -9.50764
thorax -5.91492 8.8308 -10.9585
lowerneck -19.4668 6.79155 3.82018
upperneck 23.8588 4.25968 12.7746
head 10.8038 3.68813 4.61272
rclavicle 1.61016e-014 -4.77083e-014
rhumerus 51.9446 56.94 -68.4984
rradius 59.8387
rwrist -71.0633
rhand -31.1064 -1.22342
rfingers 7.12502
rthumb -4.38588 -31.158
lclavicle 1.61016e-014 -4.77083e-014
lhumerus 33.4047 -32.5782 33.6557
lradius 31.8011
lwrist -2.81144
lhand 23.9399 -330.234
lfingers 7.12502
lthumb 48.1861 -308.109
rfemur -23.1589 -39.7724 43.7402
rtibia 71.9156
rfoot -2.71816 -6.78184
rtoes 24.6618
lfemur -36.4376 8.44334 -26.4564
ltibia 58.082
lfoot -26.7471 -1.66077
ltoes 10.3537
639
root -3.4147 14.2557 5.79314 -168.293 -23.4921 -183.497
lowerback -0.433972 14.8712 0.920593
upperback -9.14282 18.8484 -9.67764
thorax -5.86103 8.82021 -11.0956
lowerneck -19.5414 6.54474 3.66793
upperneck 23.8651 3.87246 13.0258
head 10.8358 3.52572 4.67943
rclavicle -8.28932e-014 3.81667e-014
rhumerus 51.7685 56.6721 -69.487
rradius 58.7166
rwrist -72.7924
rhand -31.2837 -1.22012
rfingers 7.12502
rthumb -4.55709 -31.1511
lclavicle -8.28932e-014 3.81667e-014
lhumerus 33.572 -31.9811 34.0133
lradius 31.1479
lwrist -3.23125
lhand 24.5141 -330.273
lfingers 7.12502
lthumb 48.7147 -308.401
rfemur -22.7853 -39.2448 44.4553
rtibia 69.574
rfoot -2.26209 -8.29624
rtoes 25.279
lfemur -36.5219 8.40194 -26.4587
ltibia 58.0501
lfoot -26.6615 -2.00101
ltoes 10.5637
640
root -3.40139 14.2582 5.76645 -168.124 -23.8169 -183.608
lowerback -0.589059 14.8711 0.908286
upperback -9.22162 18.8246 -9.82591
thorax -5.81878 8.80039 -11.2107
lowerneck -19.6061 6.2799 3.49017
upperneck 23.8745 3.46408 13.2876
head 10.8692 3.35193 4.75105
rclavicle -8.93537e-014 6.67916e-014
rhumerus 51.3781 56.408 -70.5151
rradius 58.0215
rwrist -74.7477
rhand -31.5169 -1.02603
rfingers 7.12502
rthumb -4.78226 -30.9521
lclavicle -8.93537e-014 6.67916e-014
lhumerus 33.5954 -31.2779 34.4994
lradius 30.5003
lwrist -3.79565
lhand 25.0673 -330.352
lfingers 7.12502
lthumb 49.2229 -308.731
rfemur -22.4084 -38.6594 45.0176
rtibia 67.2828
rfoot -1.77323 -9.70448
rtoes 25.8449
lfemur -36.5897 8.39762 -26.4638
ltibia 58.013
lfoot -26.5723 -2.31834
ltoes 10.7786
641
root -3.38939 14.2612 5.74157 -167.976 -24.0815 -183.71
lowerback -0.734914 14.8577 0.896155
upperback -9.29578 18.7847 -9.95027
thorax -5.78776 8.77251 -11.3051
lowerneck -19.6572 5.99723 3.29381
upperneck 23.8864 3.03767 13.5439
head 10.9037 3.16688 4.82084
rclavicle -4.47266e-015 -1.65389e-013
rhumerus 50.826 56.1534 -71.5205
rradius 57.7492
rwrist -76.8549
rhand -31.8259 -0.666575
rfingers 7.12502
rthumb -5.0806 -30.5857
lclavicle -4.47266e-015 -1.65389e-013
lhumerus 33.4863 -30.4888 35.0758
lradius 29.8723
lwrist -4.4673
lhand 25.6168 -330.47
lfingers 7.12502
lthumb 49.7268 -309.105
rfemur -22.0409 -38.0365 45.4198
rtibia 65.1216
rfoot -1.2594 -10.9325
rtoes 26.2266
lfemur -36.6363 8.42755 -26.4735
ltibia 57.9723
lfoot -26.4848 -2.60137
ltoes 10.9755
642
root -3.3787 14.2641 5.71893 -167.854 -24.2904 -183.795
lowerback -0.868257 14.8272 0.892749
upperback -9.36492 18.7249 -10.044
thorax -5.76971 8.73449 -11.3768
lowerneck -19.6969 5.69731 3.07409
upperneck 23.9068 2.59689 13.7878
head 10.9416 2.97128 4.88802
rclavicle -1.94809e-013 -5.08889e-014
rhumerus 50.1757 55.9227 -72.4275
rradius 57.9
rwrist -79.0542
rhand -32.1736 -0.174898
rfingers 7.12502
rthumb -5.41632 -30.0857
lclavicle -1.94809e-013 -5.08889e-014
lhumerus 33.2806 -29.6838 35.6338
lradius 29.2942
lwrist -5.11257
lhand 26.1434 -330.59
lfingers 7.12502
lthumb 50.2088 -309.478
rfemur -21.7099 -37.4209 45.6792
rtibia 63.2056
rfoot -0.690438 -11.8489
rtoes 26.398
lfemur -36.6648 8.48971 -26.4781
ltibia 57.9299
lfoot -26.3971 -2.85361
ltoes 11.1642
643
root -3.3694 14.2671 5.69932 -167.76 -24.4323 -183.872
lowerback -0.973911 14.7798 0.896595
upperback -9.42821 18.6451 -10.1088
thorax -5.77206 8.6858 -11.4313
lowerneck -19.7268 5.38328 2.83265
upperneck 23.9376 2.14641 14.0151
head 10.984 2.76704 4.95165
rclavicle -9.42239e-014 4.77083e-014
rhumerus 49.4602 55.7276 -73.2061
rradius 58.4594
rwrist -81.2697
rhand -32.5433 0.382126
rfingers 7.12502
rthumb -5.77334 -29.5192
lclavicle -9.42239e-014 4.77083e-014
lhumerus 32.9803 -28.8763 36.1452
lradius 28.7664
lwrist -5.69008
lhand 26.6194 -330.726
lfingers 7.12502
lthumb 50.6437 -309.848
rfemur -21.4488 -36.8541 45.7877
rtibia 61.6835
rfoot -0.154951 -12.4128
rtoes 26.32
lfemur -36.6691 8.58504 -26.4915
ltibia 57.8818
lfoot -26.3074 -3.06754
ltoes 11.3327
